<?xml version="1.0" encoding="iso-8859-1"?>
<!-- Generator: Adobe Illustrator 18.1.1, SVG Export Plug-In . SVG Version: 6.00 Build 0)  -->
<!DOCTYPE svg PUBLIC "-//W3C//DTD SVG 1.1//EN" "http://www.w3.org/Graphics/SVG/1.1/DTD/svg11.dtd">
<svg version="1.1" id="Layer_1" xmlns="http://www.w3.org/2000/svg" xmlns:xlink="http://www.w3.org/1999/xlink" x="0px" y="0px"
	 viewBox="0 0 500 236.066" style="enable-background:new 0 0 500 236.066;" xml:space="preserve">
<path style="fill:#FFFFFF;stroke:#FFFFFF;stroke-width:0.5;" d="M126.369,140.292l2.391,0.149c0.398,0.478,0.598,0.877,0.598,1.195
	c0,0.996-2.939,1.195-8.815,0.598c-10.619,0-19.334,0.747-26.147,2.241c-1.335,0.339-1.972,0.459-1.913,0.359
	c0.08,21.655,0.966,40.012,2.66,55.073c0.578,3.108,1.175,4.9,1.793,5.379c0.179,0,0.528-0.598,1.046-1.793l0.149-0.149h0.149
	c0.398,0.159,0.598,0.508,0.598,1.046v1.195c-0.259,2.191-1.056,3.287-2.391,3.287H95.74c-2.231,0-3.725-7.72-4.482-23.159
	c-0.478-6.036-0.946-14.268-1.405-24.697c-0.458-10.429-0.677-15.743-0.658-15.943c-5.159,0.199-13.288,1.793-24.384,4.781h-1.494
	c-0.797,0-1.395-0.349-1.793-1.046v-0.747l11.355-2.839C90.809,141.936,108.639,140.292,126.369,140.292z"/>
<path style="fill:#FFFFFF;stroke:#FFFFFF;stroke-width:0.5;" d="M107.594,144.828c1.554,0.399,2.271,1.215,2.151,2.45
	c-0.139,1.495-1.046,2.162-2.719,2.003c-1.594-0.159-2.331-0.837-2.211-2.032C105.313,145.496,106.239,144.689,107.594,144.828z
	 M109.208,162.16c1.076,0.1,1.28,3.626,0.612,10.578c-0.667,6.953-0.727,13.133-0.179,18.542c0.547,5.409,0.851,9.208,0.911,11.4
	c-0.08,0.696-0.508,1.005-1.285,0.926c-1.295-0.119-2.022-0.936-2.181-2.45c-0.777-4.343-0.847-12.461-0.209-24.354
	c0.239-6.594,0.219-11.057-0.06-13.388C106.897,162.598,107.694,162.179,109.208,162.16z"/>
<path style="fill:#FFFFFF;stroke:#FFFFFF;stroke-width:0.5;" d="M135.694,137.445l0.299-0.03c3.247,0.717,5.607,1.823,7.082,3.317
	l0.179,0.598c-0.1,0.498-0.429,0.767-0.986,0.807c-0.996,0.06-2.371-0.359-4.124-1.255c-0.399-0.179-0.947-0.249-1.644-0.209
	l-0.897,0.06c-2.789,0.16-4.144,6.126-4.064,17.899l0.15,2.391c2.231-0.598,5.648-1.026,10.25-1.286l1.793-0.119
	c1.494,0.119,2.281,0.727,2.361,1.823c0.04,0.876-0.892,1.3-2.794,1.27c-1.903-0.03-3.591-0.005-5.065,0.074l-6.096,0.807
	c-0.139,0.359-0.249,1.046-0.329,2.063l0.329,43.987c-0.02,8.067-0.388,12.122-1.106,12.162l-0.568,0.209
	c-0.817-0.14-1.255-0.717-1.315-1.733c0.797-6.872,0.927-20.151,0.389-39.833l-0.628-15.688l-0.15,0.03
	c-2.729,0.159-6.126,1.753-10.19,4.781c-0.499,0.319-0.987,0.498-1.465,0.537c-1.115-0.139-1.693-0.607-1.733-1.404v-0.15
	c-0.079-1.275,2.958-3.048,9.114-5.319c2.829-0.936,4.244-1.514,4.244-1.733c0.398-8.766,0.747-13.876,1.046-15.33
	c-0.12-1.992,0.688-4.393,2.421-7.201C133.313,138.013,134.479,137.505,135.694,137.445z"/>
<path style="fill:#FFFFFF;stroke:#FFFFFF;stroke-width:0.5;" d="M158.115,137.445l0.299-0.03c3.247,0.717,5.607,1.823,7.082,3.317
	l0.179,0.598c-0.1,0.498-0.429,0.767-0.986,0.807c-0.996,0.06-2.371-0.359-4.124-1.255c-0.399-0.179-0.947-0.249-1.644-0.209
	l-0.897,0.06c-2.789,0.16-4.144,6.126-4.064,17.899l0.15,2.391c2.231-0.598,5.648-1.026,10.25-1.286l1.793-0.119
	c1.495,0.119,2.281,0.727,2.362,1.823c0.039,0.876-0.893,1.3-2.795,1.27c-1.903-0.03-3.591-0.005-5.065,0.074l-6.096,0.807
	c-0.139,0.359-0.249,1.046-0.329,2.063l0.329,43.987c-0.02,8.067-0.388,12.122-1.106,12.162l-0.568,0.209
	c-0.817-0.14-1.255-0.717-1.315-1.733c0.797-6.872,0.927-20.151,0.389-39.833l-0.628-15.688l-0.15,0.03
	c-2.729,0.159-6.126,1.753-10.19,4.781c-0.499,0.319-0.986,0.498-1.465,0.537c-1.115-0.139-1.693-0.607-1.733-1.404v-0.15
	c-0.079-1.275,2.958-3.048,9.114-5.319c2.829-0.936,4.244-1.514,4.244-1.733c0.398-8.766,0.747-13.876,1.046-15.33
	c-0.12-1.992,0.688-4.393,2.421-7.201C155.734,138.013,156.899,137.505,158.115,137.445z"/>
<path style="fill:#FFFFFF;stroke:#FFFFFF;stroke-width:0.5;" d="M177.188,159.02c2.291-0.478,3.437-0.478,3.437,0v1.644
	c0,0.339-0.952,0.638-2.854,0.896c-1.902,0.26-4.348,3.462-7.336,9.607c-2.988,6.146-4.871,12.068-5.648,17.765v0.299
	c0,1.196,0.598,1.793,1.793,1.793c3.148,0,7.262-5.817,12.342-17.451c0.916-9.842,1.404-14.742,1.464-14.703h0.299
	c0.598,0,1.195,0.399,1.793,1.195v0.15c-0.239,11.356-0.359,18.139-0.359,20.35c0.458,10.16,0.757,16.485,0.897,18.975
	c-1.993,0.498-2.988,0.129-2.988-1.106l-0.747-17.571h-0.299l-5.229,7.919c-3.028,3.187-5.618,4.781-7.769,4.781h-0.897
	c-1.833,0-2.829-1.046-2.988-3.138v-0.897c0-3.645,1.593-9.383,4.781-17.212C170.066,164.489,173.503,160.056,177.188,159.02z"/>
<path style="fill:#FFFFFF;stroke:#FFFFFF;stroke-width:0.5;" d="M188.195,156.122h0.747c0.538,0,0.687,2.191,0.448,6.574
	l0.299,1.793c0.398,0,1.892-1.096,4.482-3.287c3.407-1.992,6.046-2.988,7.919-2.988h0.897c1.693,0,2.54,3.437,2.54,10.309
	l0.747,21.217c-0.12,2.291-0.668,3.437-1.644,3.437l-0.149,0.149c-1.096,0-1.644-3.685-1.644-11.056v-2.84
	c0-8.586-0.399-14.413-1.195-17.481c-0.419-0.498-0.817-0.747-1.196-0.747c-3.128,0.917-6.763,4.204-10.907,9.861
	c-0.398,1.434-0.298,8.407,0.299,20.917c0,1.395-0.647,2.092-1.943,2.092c-0.996,0-1.494-1.145-1.494-3.437l-0.149-3.138
	l0.149-22.86c0-2.908-0.025-5.055-0.074-6.44C186.277,156.814,186.899,156.122,188.195,156.122z"/>
<path style="fill:#FFFFFF;stroke:#FFFFFF;stroke-width:0.5;" d="M229.573,158.871c1.195,0,1.892,1.744,2.091,5.23
	c0.299,4.822,0.348,12.092,0.15,21.814c-2.49,18.208-4.512,30.042-6.066,35.501c-1.554,5.458-3.805,8.815-6.753,10.07h-0.747
	c-1.892,0-3.536-1.345-4.931-4.034c-0.597-1.554-0.896-3.397-0.896-5.529l0.149-2.092h0.449c0.298,0.897,0.646,2.69,1.046,5.379
	c1.195,2.49,2.54,3.736,4.034,3.736c3.267,0,5.972-6.893,8.113-20.679c2.141-13.786,3.262-23.946,3.362-30.48
	c0.099-6.534-0.25-11.644-1.046-15.329h-0.298c-1.654,2.471-3.881,8.461-6.679,17.975c-2.799,9.512-5.444,13.969-7.934,13.372
	h-0.597c-1.494-0.339-2.242-1.435-2.242-3.287l-0.149-0.897c0.06-19.364,1.195-29.115,3.407-29.255
	c0.995,0.956,1.046,3.497,0.149,7.62c-0.498,3.048-0.747,5.638-0.747,7.769l0.478,11.326l0.149,1.494h0.15
	c1.673-0.319,4.77-8.049,9.293-23.189C225.618,161.042,227.64,158.871,229.573,158.871z"/>
<path style="fill:#FFFFFF;stroke:#FFFFFF;stroke-width:0.5;" d="M294.791,142.511c0.871,0.174,1.307,0.465,1.307,0.871
	c-0.484,4.511-0.725,11.431-0.725,20.761c0,16.435,0.629,28.968,1.887,37.602v0.436c0,1.161-0.435,1.742-1.306,1.742h-0.145
	c-0.91,0-1.442-1.259-1.597-3.775c-0.968-3.619-1.452-18.573-1.452-44.86l-0.145-2.759h-0.144l-8.13,25.697
	c-1.472,2.322-2.971,3.485-4.501,3.485h-0.581c-4.142,0-7.385-8.759-9.727-26.278l-0.145-0.145c0-0.291-0.097-0.436-0.291-0.436
	c-0.484,2.033-0.726,7.017-0.726,14.953v3.92c0.251,18.487,0.944,28.48,2.076,29.98c1.133,1.5,0.972,2.25-0.479,2.25h-0.291
	c-1.433,0-2.303-2.13-2.613-6.388c-0.871-4.065-1.307-11.372-1.307-21.923c0.251-19.357,0.929-29.036,2.033-29.036l0.871-0.29h0.872
	c1.838,0,2.758,2.129,2.758,6.388c0.774,8.014,1.984,14.257,3.629,18.729c1.452,3.774,2.904,5.662,4.356,5.662
	c1.277,0,5.488-11.856,12.63-35.569C293.291,142.85,293.921,142.511,294.791,142.511z"/>
<path style="fill:#FFFFFF;stroke:#FFFFFF;stroke-width:0.5;" d="M314.875,160.717c2.226-0.464,3.339-0.464,3.339,0v1.597
	c0,0.33-0.925,0.62-2.773,0.871c-1.848,0.252-4.225,3.364-7.128,9.335c-2.904,5.972-4.733,11.726-5.488,17.262v0.291
	c0,1.162,0.581,1.742,1.742,1.742c3.058,0,7.056-5.652,11.993-16.957c0.89-9.563,1.364-14.325,1.422-14.286h0.291
	c0.581,0,1.161,0.388,1.742,1.161v0.145c-0.232,11.034-0.349,17.626-0.349,19.774c0.445,9.872,0.736,16.018,0.872,18.438
	c-1.936,0.484-2.904,0.125-2.904-1.074l-0.726-17.073h-0.291l-5.081,7.695c-2.943,3.097-5.459,4.646-7.549,4.646h-0.872
	c-1.781,0-2.749-1.017-2.904-3.049v-0.872c0-3.542,1.548-9.118,4.646-16.724C307.955,166.031,311.294,161.723,314.875,160.717z"/>
<path style="fill:#FFFFFF;stroke:#FFFFFF;stroke-width:0.5;" d="M339.14,160.543c1.354,0.213,2.033,0.745,2.033,1.597v0.145
	c0,0.871-0.63,1.307-1.888,1.307h-2.758c-1.742,0-4.08,2.299-7.013,6.896c-2.932,4.597-4.244,9.273-3.934,14.024
	s2.875,7.168,7.695,7.244c4.82,0.078,9.088-2.593,12.805-8.014c0-0.155,0.338-0.251,1.016-0.291h0.145
	c0.523,0,0.91,0.243,1.161,0.726v0.291c-0.716,2.09-2.696,4.423-5.938,6.998c-3.243,2.575-7.283,3.61-12.123,3.106
	c-4.839-0.503-7.259-3.982-7.259-10.438s1.888-12.001,5.663-16.637C332.519,162.861,335.984,160.543,339.14,160.543z"/>
<path style="fill:#FFFFFF;stroke:#FFFFFF;stroke-width:0.5;" d="M354.819,154.126h0.145c0.967,0,1.452,0.678,1.452,2.033
	c-1.259,2.458-1.888,5.022-1.888,7.694l-0.581,8.421c5.556-2.788,11.459-6.127,17.713-10.018c2.071-0.967,3.572-1.452,4.501-1.452
	h0.435l0.581,0.581v0.145c0,1.548-0.629,2.322-1.888,2.322c-2.09,0.775-5.575,2.614-10.453,5.517
	c-5.769,3.019-9.253,4.956-10.453,5.807v0.145c10.802,7.066,18.157,10.598,22.068,10.598h2.177c2.109,0,4.142-0.919,6.098-2.758
	l0.291,0.29v0.145c0,2.014-1.5,3.513-4.501,4.501l-2.033,0.291h-0.58c-5.189,0-12.738-3.097-22.649-9.292l-0.871-0.291
	c-0.968,0-1.452,5.566-1.452,16.697v3.049l-0.145,2.904l0.145,2.904v5.662l0.145,4.646l0.436,0.291l0.871-0.872h0.145l0.291,0.291
	c0,2.323-0.581,3.485-1.742,3.485h-0.872c-1.161,0-1.741-0.726-1.741-2.178l-0.291-7.259c0-7.433,0.338-17.693,1.016-30.779
	c-3.001-0.793-4.501-1.906-4.501-3.339c0-0.967,1.306-1.452,3.919-1.452c0.968,0,1.452-2.516,1.452-7.549
	c0.368-7.355,1.046-11.034,2.033-11.034L354.819,154.126z"/>
<path style="fill:#FFFFFF;stroke:#FFFFFF;stroke-width:0.5;" d="M388.859,141.582c1.51,0.388,2.207,1.181,2.09,2.381
	c-0.136,1.452-1.016,2.101-2.642,1.946c-1.549-0.155-2.265-0.813-2.149-1.975C386.642,142.231,387.542,141.447,388.859,141.582z
	 M390.426,158.423c1.046,0.097,1.244,3.524,0.596,10.279c-0.649,6.756-0.707,12.761-0.175,18.017
	c0.532,5.256,0.828,8.947,0.885,11.077c-0.077,0.677-0.493,0.977-1.248,0.899c-1.259-0.116-1.965-0.91-2.12-2.381
	c-0.755-4.22-0.823-12.108-0.203-23.664c0.232-6.407,0.212-10.743-0.058-13.009C388.181,158.849,388.955,158.442,390.426,158.423z"
	/>
<path style="fill:#FFFFFF;stroke:#FFFFFF;stroke-width:0.5;" d="M398.334,157.9h0.726c0.523,0,0.667,2.129,0.435,6.388l0.291,1.742
	c0.387,0,1.839-1.065,4.355-3.194c3.311-1.935,5.875-2.904,7.695-2.904h0.872c1.645,0,2.468,3.339,2.468,10.017l0.726,20.616
	c-0.117,2.226-0.649,3.339-1.597,3.339l-0.145,0.144c-1.065,0-1.597-3.58-1.597-10.743v-2.759c0-8.343-0.388-14.004-1.161-16.986
	c-0.407-0.484-0.794-0.725-1.162-0.725c-3.039,0.891-6.572,4.085-10.598,9.582c-0.387,1.393-0.29,8.169,0.291,20.325
	c0,1.355-0.629,2.033-1.888,2.033c-0.968,0-1.452-1.113-1.452-3.339l-0.145-3.049l0.145-22.212c0-2.826-0.024-4.912-0.072-6.258
	C396.471,158.574,397.075,157.9,398.334,157.9z"/>
<path style="fill:#FFFFFF;" d="M435.573,161.066c3.281,0.193,5.512,1.839,6.693,4.936v0.291c0,2.536-0.852,4.762-2.555,6.679
	l-1.307,1.016h-1.017l-0.291-0.291v-0.435c1.317-2.69,1.975-4.578,1.975-5.663v-0.871c0-1.703-1.597-2.719-4.791-3.049
	c-3.716,0.291-6.359,1.491-7.927,3.6c-1.567,2.11-2.351,4.409-2.351,6.896c0,2.488,2.661,4.719,7.984,6.693
	c3.194,1.162,5.938,2.41,8.232,3.746c2.294,1.335,3.247,2.855,2.86,4.558c-0.388,1.704-1.728,3.156-4.021,4.356
	c-2.294,1.2-5.183,1.615-8.668,1.248c-3.891-0.117-6.799-0.803-8.725-2.062c-1.926-1.258-2.889-3.364-2.889-6.315
	c0-2.952,0.484-3.979,1.452-3.078c0.968,0.9,1.403,2.163,1.307,3.789c0,2.827,2.662,4.598,7.985,5.314h1.306
	c5.459,0.33,8.72-0.556,9.786-2.656c1.064-2.101-1.946-4.229-9.031-6.388c-7.085-2.158-10.55-5.357-10.395-9.596
	c0.154-4.24,1.771-7.468,4.849-9.684C429.113,161.883,432.292,160.872,435.573,161.066z"/>
<defs>
	<filter id="Adobe_OpacityMaskFilter" filterUnits="userSpaceOnUse" x="59.525" y="9.212" width="384.432" height="120.194">
		
			<feColorMatrix  type="matrix" values="-1 0 0 0 1  0 -1 0 0 1  0 0 -1 0 1  0 0 0 1 0" color-interpolation-filters="sRGB" result="source"/>
		<feFlood  style="flood-color:white;flood-opacity:1" result="back"/>
		<feBlend  in="source" in2="back" mode="normal"/>
	</filter>
</defs>
<mask maskUnits="userSpaceOnUse" x="59.525" y="9.212" width="384.432" height="120.194" id="XMLID_2_">
	<g style="filter:url(#Adobe_OpacityMaskFilter);">
		<g>
			<path style="fill:#FFFFFF;stroke:#000000;stroke-width:4;stroke-miterlimit:10;" d="M139.287,19.718
				c-1.409,0.305-2.835,0.528-4.278,0.605c-12.625,0.67-60.384,4.682-53.695,26.892c7.697,25.558,10.171,51.45,32.842,65.477
				c22.67,14.026,92.051,5.879,100.128-7.059c1.254-2.009,40.156-49.612,8.662-72.071c-0.589-0.42-1.112-0.916-1.605-1.436
				C212.387,22.69,149.658,17.473,139.287,19.718z"/>
			<path style="fill:#FFFFFF;stroke:#000000;stroke-width:4;stroke-miterlimit:10;" d="M422.814,36.749
				c0,0-3.079-12.901-56.19-14.361c-11.289-2.191-78.255,7.059-77.998,24.097c0.257,17.039,0.77,47.221,14.625,56.227
				c13.855,9.006,64.657,28.235,96.728,0C422.732,85.028,427.689,39.913,422.814,36.749z"/>
		</g>
	</g>
</mask>
<g id="XMLID_1_" style="mask:url(#XMLID_2_);">
	<g>
		<path style="stroke:#000000;stroke-miterlimit:10;" d="M441.936,31.801c0.258,15.094-2.013,21.144-2.013,21.144
			c-11.207,8.146-19.666,49.002-40.456,61.937c-24.804,15.433-78.635,6.667-81.24,6.108c-0.061-0.015-0.116-0.022-0.177-0.026
			c-4.695-0.292-13.659-6.393-17.654-9.672c-0.974-0.799-2.028-2.03-3.144-2.647c-8.617-4.761-22.48-51.207-22.48-51.207
			c-13.855-12.899-23.861-1.946-26.428-0.245c-2.567,1.705-6.416,18.014-16.934,38.946s-32.586,26.043-32.586,26.043
			c-54.65,10.712-75.945,1.705-79.793,1.219c-3.849-0.489-27.968-12.659-37.459-40.407c-9.495-27.748-13.855-28.479-17.704-32.13
			c-3.849-3.651-1.797-23.612-1.797-23.612c0.258-3.114,21.04-7.058,21.04-7.058c58.753-20.932,150.858,0.277,158.497,7.667
			c10.568,10.223,38.344,3.158,38.344,3.158c24.631-19.008,90.1-16.992,90.777-15.692C370.729,15.33,441.682,16.711,441.936,31.801z
			"/>
	</g>
	<g>
		<path style="stroke:#000000;stroke-width:4;stroke-miterlimit:10;" d="M62.071,27.255c0,0-2.051,19.96,1.797,23.612
			s8.209,4.381,17.703,32.13c9.491,27.748,33.61,39.918,37.459,40.407c3.849,0.486,25.143,9.493,79.793-1.219
			c0,0,22.068-5.111,32.586-26.043c10.518-20.932,14.367-37.241,16.934-38.946c2.567-1.701,12.573-12.655,26.428,0.245
			c0,0,13.863,46.446,22.48,51.207c1.116,0.617,2.171,1.847,3.144,2.647c3.995,3.279,12.958,9.38,17.654,9.672
			c0.061,0.004,0.116,0.011,0.177,0.026c2.606,0.559,56.436,9.325,81.24-6.108c20.79-12.936,29.249-53.792,40.456-61.937
			c0,0,2.271-6.05,2.013-21.144c-0.254-15.09-71.207-16.47-71.207-16.47c-0.677-1.3-66.146-3.315-90.777,15.692
			c0,0-27.775,7.065-38.344-3.158c-7.639-7.39-99.745-28.599-158.497-7.667C83.111,20.197,62.329,24.141,62.071,27.255z"/>
	</g>
</g>
</svg>
