<?xml version="1.0" encoding="iso-8859-1"?>
<!-- Generator: Adobe Illustrator 18.1.1, SVG Export Plug-In . SVG Version: 6.00 Build 0)  -->
<!DOCTYPE svg PUBLIC "-//W3C//DTD SVG 1.1//EN" "http://www.w3.org/Graphics/SVG/1.1/DTD/svg11.dtd">
<svg version="1.1" id="Layer_1" xmlns="http://www.w3.org/2000/svg" xmlns:xlink="http://www.w3.org/1999/xlink" x="0px" y="0px"
	 viewBox="0 0 1250 800" style="enable-background:new 0 0 1250 800;" xml:space="preserve">
<defs>
	<filter id="Adobe_OpacityMaskFilter" filterUnits="userSpaceOnUse" x="31.835" y="199.995" width="1186.33" height="384.649">
		
			<feColorMatrix  type="matrix" values="-1 0 0 0 1  0 -1 0 0 1  0 0 -1 0 1  0 0 0 1 0" color-interpolation-filters="sRGB" result="source"/>
		<feFlood  style="flood-color:white;flood-opacity:1" result="back"/>
		<feBlend  in="source" in2="back" mode="normal"/>
	</filter>
</defs>
<mask maskUnits="userSpaceOnUse" x="31.835" y="199.995" width="1186.33" height="384.649" id="XMLID_3_">
	<g style="filter:url(#Adobe_OpacityMaskFilter);">
		<g>
			<path style="fill:#FFFFFF;stroke:#000000;stroke-width:4;stroke-miterlimit:10;" d="M275.511,229.861
				c-4.38,1-8.81,1.731-13.296,1.982c-39.237,2.195-187.666,15.338-166.878,88.098c23.922,83.727,31.611,168.55,102.067,214.5
				c70.456,45.949,286.083,19.259,311.184-23.125c3.898-6.582,124.8-162.526,26.919-236.103c-1.831-1.376-3.457-3-4.989-4.703
				C502.694,239.597,307.74,222.507,275.511,229.861z"/>
			<path style="fill:#FFFFFF;stroke:#000000;stroke-width:4;stroke-miterlimit:10;" d="M1156.672,285.653
				c0,0-9.569-42.262-174.63-47.046c-35.085-7.177-243.206,23.124-242.408,78.942s2.392,154.695,45.452,184.199
				c43.059,29.504,200.944,92.498,300.618,0C1156.416,443.814,1171.822,296.019,1156.672,285.653z"/>
		</g>
	</g>
</mask>
<g id="XMLID_1_" style="mask:url(#XMLID_3_);">
	<g>
		<path d="M1216.101,269.443c0.801,49.447-6.255,69.266-6.255,69.266c-34.83,26.685-61.12,160.528-125.733,202.905
			c-77.088,50.559-244.386,21.841-252.484,20.011c-0.191-0.048-0.359-0.072-0.55-0.084c-14.592-0.957-42.449-20.944-54.865-31.685
			c-3.026-2.619-6.303-6.65-9.772-8.672c-26.781-15.597-69.864-167.752-69.864-167.752c-43.059-42.258-74.158-6.375-82.136-0.801
			c-7.978,5.586-19.939,59.015-52.628,127.587s-101.273,85.317-101.273,85.317c-169.845,35.093-236.025,5.586-247.986,3.995
			c-11.961-1.603-86.92-41.469-116.416-132.372c-29.508-90.903-43.059-93.295-55.02-105.256s-5.586-77.351-5.586-77.351
			c0.801-10.203,65.39-23.121,65.39-23.121c182.596-68.572,468.845,0.909,492.587,25.118
			c32.845,33.491,119.167,10.346,119.167,10.346c76.55-62.269,280.018-55.666,282.123-51.408
			C994.8,215.487,1215.312,220.009,1216.101,269.443z"/>
	</g>
	<g>
		<path style="fill:none;stroke:#000000;stroke-width:4;stroke-miterlimit:10;" d="M35.532,254.552c0,0-6.375,65.39,5.586,77.351
			s25.513,14.353,55.02,105.256c29.496,90.903,104.455,130.769,116.416,132.372c11.961,1.591,78.141,31.098,247.986-3.995
			c0,0,68.584-16.745,101.273-85.317s44.65-122.002,52.628-127.587c7.978-5.574,39.076-41.457,82.136,0.801
			c0,0,43.083,152.155,69.864,167.752c3.469,2.021,6.746,6.052,9.772,8.672c12.415,10.741,40.272,30.728,54.865,31.685
			c0.191,0.012,0.359,0.036,0.55,0.084c8.098,1.83,175.395,30.548,252.484-20.011c64.613-42.378,90.903-176.221,125.733-202.905
			c0,0,7.057-19.819,6.255-69.266c-0.789-49.435-221.301-53.956-221.301-53.956c-2.105-4.258-205.573-10.861-282.123,51.408
			c0,0-86.322,23.144-119.167-10.346c-23.742-24.209-309.992-93.69-492.587-25.118C100.923,231.431,36.334,244.349,35.532,254.552z"
			/>
	</g>
</g>
</svg>
